<?xml version="1.0" encoding="UTF-8"?> <svg xmlns="http://www.w3.org/2000/svg" width="1000" height="644.578" viewBox="0 0 1000 644.578"><g id="SSA_logo_hvit" transform="translate(-9.4 -14)"><path id="Path_1" data-name="Path 1" d="M95.243,14,9.4,658.578H934.1L1009.4,14Zm227.41,182.229h-49.7l-9.036,7.53L251.87,283.578l6.024,7.53h90.361l27.108,31.626-22.59,164.157-36.145,31.627H185.6L158.5,486.892l10.542-79.819H235.3l-6.024,40.663,6.024,7.53H285l9.036-7.53,13.554-87.349-6.024-7.53H211.207L184.1,321.229,205.183,163.1l36.145-31.626H372.352L399.46,163.1l-10.542,79.819H324.159l6.024-40.663Zm225.9,322.289H417.533l-27.108-31.627,10.542-79.819h64.759L459.7,447.735l6.024,7.53h49.7l9.036-7.53,13.554-87.349-6.024-7.53H443.135l-27.108-31.626L437.111,163.1l36.145-31.627H604.28L631.388,163.1l-10.542,79.819H556.087l6.024-40.663-6.024-7.53h-49.7l-9.036,7.53L485.3,282.072l6.024,7.53h90.361L608.8,321.229l-22.59,164.157Zm234.94,0-6.024-82.831H699.159l-28.615,82.831H604.279L748.858,134.482h63.253l37.651,384.036ZM721.749,373.94h54.217L766.93,244.422Z" transform="translate(0)" fill="#fff"></path></g></svg> 